<svg width="187" height="186" viewBox="0 0 187 186" fill="none" xmlns="http://www.w3.org/2000/svg">
<rect width="186" height="186" transform="translate(0.0532532)" fill="#4C5BE1"/>
<path d="M114.265 86.1397C91.1913 89.8316 78.6796 109.155 56.6406 114.241C44.2482 117.101 20.0142 114.939 28.108 110.413C35.2801 104.98 37.6998 105.325 62.0692 83.8935C86.4386 62.4622 107.344 76.207 111.511 80.3714C115.679 84.5358 115.746 85.7001 114.265 86.1397Z" fill="white"/>
<path d="M126.015 79.5487C132.352 79.5487 137.489 74.4117 137.489 68.075C137.489 61.7383 132.352 56.6014 126.015 56.6014C119.678 56.6014 114.541 61.7383 114.541 68.075C114.541 74.4117 119.678 79.5487 126.015 79.5487Z" fill="#FF7759"/>
<path d="M153.614 105.007C153.84 107.421 145.784 103.481 131.916 107.417C118.047 111.353 113.228 119.181 93.6841 126.345C74.1401 133.51 53.5939 126.249 59.1125 122.976C64.6311 119.702 72.3193 115.288 83.1892 106.855C94.059 98.4213 105.952 88.6926 123.419 88.7415C140.885 88.7905 153.388 102.594 153.614 105.007Z" fill="#98D2FB"/>
</svg>
