<svg width="479" height="125" viewBox="0 0 479 125" fill="none" xmlns="http://www.w3.org/2000/svg">
<path d="M125.931 54.1223C97.7526 58.6311 82.4724 82.2306 55.5568 88.4418C40.4223 91.9344 10.826 89.2935 20.7107 83.7669C29.4698 77.1309 32.4249 77.5525 62.1866 51.379C91.9483 25.2056 117.479 41.9917 122.569 47.0776C127.659 52.1634 127.74 53.5854 125.931 54.1223Z" fill="#F8F5FF"/>
<path d="M140.282 46.0697C148.021 46.0697 154.294 39.7961 154.294 32.0572C154.294 24.3183 148.021 18.0447 140.282 18.0447C132.543 18.0447 126.269 24.3183 126.269 32.0572C126.269 39.7961 132.543 46.0697 140.282 46.0697Z" fill="#FF7759"/>
<path d="M173.986 77.1673C174.262 80.1151 164.424 75.3037 147.487 80.1102C130.55 84.9167 124.664 94.4773 100.796 103.227C76.9269 111.977 51.8344 103.11 58.5741 99.1117C65.3138 95.1138 74.7033 89.7231 87.9783 79.4236C101.253 69.124 115.778 57.2425 137.109 57.3023C158.44 57.3622 173.711 74.2195 173.986 77.1673Z" fill="#4C5BE1"/>
<path d="M204.034 92.9516V39.8062H225.68C238.037 39.8062 243.772 45.2176 243.772 53.6983C243.772 59.8366 240.703 64.2789 234.403 65.0866V65.1673C241.753 65.8135 245.791 70.6596 245.791 77.6056C245.791 86.9747 240.622 92.9516 227.618 92.9516H204.034ZM210.818 63.1481H226.568C234.08 63.1481 237.472 59.8366 237.472 54.5867C237.472 49.256 233.999 45.783 225.599 45.783H210.818V63.1481ZM210.818 86.9747H227.376C236.503 86.9747 239.168 83.0979 239.168 76.9595C239.168 71.6288 234.807 68.1558 227.053 68.1558H210.818V86.9747Z" fill="#F8F5FF"/>
<path d="M253.905 92.9516V36.9793H260.367V92.9516H253.905Z" fill="#F8F5FF"/>
<path d="M286.493 93.5977C276.073 93.5977 269.693 87.3786 269.693 77.6864V53.0521H276.154V76.5556C276.154 83.4209 280.677 87.7824 288.269 87.7824C297.558 87.7824 303.535 81.5633 303.535 71.0634V53.0521H309.996V92.9516H303.535C303.696 90.2862 303.858 85.2786 303.858 81.2402H303.777C302.081 88.7516 296.427 93.5977 286.493 93.5977Z" fill="#F8F5FF"/>
<path d="M355.371 71.3057V74.2941H324.113C324.517 82.7748 329.686 88.1055 337.521 88.1055C344.225 88.1055 348.828 84.7132 349.394 79.4633H355.371C354.967 88.1055 347.94 93.5977 337.44 93.5977C325.406 93.5977 317.652 85.6824 317.652 73.3249C317.652 60.5636 325.325 52.406 337.279 52.406C348.667 52.406 355.371 59.4328 355.371 71.3057ZM349.394 69.6096V69.125C349.394 62.0982 345.032 57.8982 337.44 57.8982C330.333 57.8982 325.567 62.0174 324.356 69.6096H349.394Z" fill="#F8F5FF"/>
<path d="M363.882 92.9516V39.8062H370.667V62.4212H403.297V39.8062H410.082V92.9516H403.297V68.075H370.667V92.9516H363.882Z" fill="#F8F5FF"/>
<path d="M420.373 47.9637V39.8062H427.319V47.9637H420.373ZM420.616 92.9516V53.0521H427.077V92.9516H420.616Z" fill="#F8F5FF"/>
<path d="M437.211 92.9516V36.9793H443.672V92.9516H437.211Z" fill="#F8F5FF"/>
<path d="M453.806 92.9516V36.9793H460.268V92.9516H453.806Z" fill="#F8F5FF"/>
</svg>
