<svg width="480" height="125" viewBox="0 0 480 125" fill="none" xmlns="http://www.w3.org/2000/svg">
<path d="M126.531 54.1223C98.3517 58.6311 83.0715 82.2306 56.1559 88.4419C41.0213 91.9344 11.425 89.2935 21.3097 83.7669C30.0689 77.1309 33.0239 77.5525 62.7856 51.379C92.5473 25.2056 118.078 41.9917 123.168 47.0776C128.258 52.1635 128.339 53.5854 126.531 54.1223Z" fill="#212121"/>
<path d="M140.881 46.0697C148.62 46.0697 154.893 39.7961 154.893 32.0572C154.893 24.3184 148.62 18.0448 140.881 18.0448C133.142 18.0448 126.868 24.3184 126.868 32.0572C126.868 39.7961 133.142 46.0697 140.881 46.0697Z" fill="#FF7759"/>
<path d="M174.585 77.1673C174.861 80.1151 165.023 75.3037 148.086 80.1102C131.149 84.9167 125.263 94.4773 101.395 103.227C77.526 111.977 52.4335 103.11 59.1732 99.1117C65.9128 95.1138 75.3023 89.7231 88.5773 79.4236C101.852 69.124 116.378 57.2425 137.708 57.3023C159.039 57.3622 174.31 74.2195 174.585 77.1673Z" fill="#4C5BE1"/>
<path d="M203.341 92.9516V39.8062H225.794C238.233 39.8062 244.694 45.1369 244.694 53.6983C244.694 59.7559 241.786 64.0366 236.133 65.0866V65.1674C242.756 66.1366 246.713 70.6596 246.713 77.5249C246.713 87.0555 240.817 92.9516 227.652 92.9516H203.341ZM213.033 62.5828H226.683C232.983 62.5828 236.052 59.8367 236.052 55.1521C236.052 50.3868 232.983 47.3984 225.714 47.3984H213.033V62.5828ZM213.033 85.3594H227.49C234.76 85.3594 237.506 81.9671 237.506 76.5557C237.506 71.9519 233.79 68.8827 227.167 68.8827H213.033V85.3594Z" fill="#212121"/>
<path d="M252.739 92.9516V36.9793H261.785V92.9516H252.739Z" fill="#212121"/>
<path d="M285.566 93.5978C275.147 93.5978 268.767 87.8632 268.767 77.2826V53.0522H277.813V75.9903C277.813 82.2902 281.69 85.844 288.232 85.844C296.309 85.844 301.397 80.4326 301.397 70.7404V53.0522H310.443V92.9516H301.397C301.639 90.2863 301.801 86.0056 301.801 81.8056H301.72C300.024 89.3978 294.451 93.5978 285.566 93.5978Z" fill="#212121"/>
<path d="M355.273 71.5481V74.7788H325.389C325.874 82.4518 330.154 86.5709 336.939 86.5709C342.754 86.5709 346.712 83.9863 347.116 79.3018H355.273C354.95 88.1863 347.681 93.5978 336.777 93.5978C324.177 93.5978 316.262 85.844 316.262 73.325C316.262 60.4021 324.177 52.406 336.777 52.406C348.085 52.406 355.273 59.1098 355.273 71.5481ZM347.116 69.2865V68.7212C347.116 62.7443 343.4 59.4328 336.858 59.4328C330.639 59.4328 326.681 62.6636 325.631 69.2865H347.116Z" fill="#212121"/>
<path d="M361.769 92.9516V39.8062H371.461V61.5328H399.73V39.8062H409.342V92.9516H399.73V69.2865H371.461V92.9516H361.769Z" fill="#212121"/>
<path d="M417.319 48.3676V39.4831H426.608V48.3676H417.319ZM417.4 92.9516V53.0522H426.446V92.9516H417.4Z" fill="#212121"/>
<path d="M434.151 92.9516V36.9793H443.197V92.9516H434.151Z" fill="#212121"/>
<path d="M450.826 92.9516V36.9793H459.872V92.9516H450.826Z" fill="#212121"/>
</svg>
